<svg width="222" height="222" viewBox="0 0 222 222" fill="none" xmlns="http://www.w3.org/2000/svg">
<path d="M168.144 0H53.5116C23.9579 0 0 23.9579 0 53.5116V168.144C0 197.697 23.9579 221.655 53.5116 221.655H168.144C197.697 221.655 221.655 197.697 221.655 168.144V53.5116C221.655 23.9579 197.697 0 168.144 0Z" fill="#1FAD7B"/>
<path d="M161.685 108.095L130.438 76.7831C129.157 75.5149 127.431 74.7828 125.627 74.7828H121.862C125.627 75.2927 128.53 78.5219 128.53 82.418V111.926C128.347 110.893 127.432 110.109 126.346 110.109H95.871C94.7074 110.109 93.753 111.011 93.6746 112.148C93.7923 111.037 94.7336 110.161 95.871 110.161H126.32C127.536 110.161 128.53 111.154 128.53 112.37V143.068C128.53 143.447 128.438 143.813 128.268 144.114C128.334 144.022 128.386 143.905 128.425 143.787C128.164 144.65 127.34 145.291 126.399 145.291H65.6703C61.6958 145.291 58.4273 142.284 58.009 138.427V142.715C58.009 144.519 58.728 146.258 60.0092 147.539L91.7005 178.956C92.9817 180.224 94.6944 180.93 96.4855 180.93H156.874C160.626 180.93 163.672 177.897 163.672 174.145V112.88C163.672 111.076 162.953 109.363 161.698 108.082L161.685 108.095Z" fill="white"/>
<path d="M93.6616 112.318V143.042C93.6616 143.107 93.6616 143.199 93.6616 143.264C93.6616 143.33 93.6746 143.421 93.7008 143.486C93.8838 144.506 94.7859 145.278 95.871 145.278H126.32C126.935 145.278 127.484 145.029 127.876 144.624C127.941 144.558 128.007 144.493 128.059 144.428C128.098 144.389 128.124 144.349 128.151 144.297C128.19 144.232 128.242 144.166 128.268 144.114C128.334 144.022 128.386 143.905 128.425 143.787C128.164 144.65 127.34 145.291 126.399 145.291H65.6703C61.6958 145.291 58.4273 142.284 58.009 138.427V47.4977C58.009 43.7454 61.0552 40.7123 64.8074 40.7123H86.8892C90.6414 40.7123 93.6877 43.7454 93.6877 47.4977V67.9976C93.6877 70.9392 95.5703 73.4494 98.1982 74.3776C98.9173 74.6391 99.6756 74.7829 100.486 74.7829H121.888C125.653 75.2928 128.556 78.522 128.556 82.4181V111.926C128.373 110.893 127.458 110.109 126.372 110.109H95.8972C94.7336 110.109 93.7792 111.011 93.7008 112.148C93.7008 112.201 93.7008 112.266 93.7008 112.318H93.6616Z" fill="url(#paint0_radial_173_30)"/>
<defs>
<radialGradient id="paint0_radial_173_30" cx="0" cy="0" r="1" gradientUnits="userSpaceOnUse" gradientTransform="translate(82.3526 76.6133) scale(136.91 136.91)">
<stop stop-color="#F2F2F2"/>
<stop offset="0.38" stop-color="#F0F0F0"/>
<stop offset="0.51" stop-color="#E9E9E9"/>
<stop offset="0.61" stop-color="#DDDDDD"/>
<stop offset="0.69" stop-color="#CCCCCC"/>
<stop offset="0.75" stop-color="#B6B6B6"/>
<stop offset="0.81" stop-color="#9B9B9B"/>
<stop offset="0.87" stop-color="#7A7A7A"/>
<stop offset="0.92" stop-color="#555555"/>
<stop offset="0.96" stop-color="#2C2C2C"/>
<stop offset="1"/>
</radialGradient>
</defs>
</svg>
