<svg width="686" height="222" viewBox="0 0 686 222" fill="none" xmlns="http://www.w3.org/2000/svg">
<path d="M332.692 107.507C335.843 110.004 338.34 113.103 340.184 116.802C342.027 120.502 342.955 124.451 342.955 128.647C342.955 133.942 341.609 138.714 338.915 142.963C336.222 147.212 332.3 150.559 327.149 153.004C321.998 155.449 315.931 156.678 308.937 156.678H269.977V52.2173H307.446C314.546 52.2173 320.586 53.3939 325.58 55.7342C330.574 58.0875 334.326 61.2514 336.824 65.252C339.321 69.2526 340.576 73.75 340.576 78.7442C340.576 84.9413 338.902 90.0532 335.555 94.1061C332.208 98.146 327.789 101.075 322.298 102.879C326.09 103.48 329.567 105.023 332.718 107.52L332.692 107.507ZM283.613 97.3223H306.544C312.937 97.3223 317.879 95.8188 321.383 92.8249C324.874 89.831 326.626 85.6865 326.626 80.3916C326.626 75.0966 324.874 70.9522 321.383 67.9583C317.879 64.9643 312.846 63.4608 306.244 63.4608H283.613V97.3354V97.3223ZM323.619 140.623C327.41 137.433 329.319 132.975 329.319 127.288C329.319 121.601 327.319 116.92 323.318 113.573C319.318 110.226 313.97 108.553 307.276 108.553H283.6V145.421H307.734C314.533 145.421 319.827 143.826 323.619 140.623Z" fill="#03110C"/>
<path d="M424.327 120.698H358.683C359.18 128.791 361.952 135.106 366.998 139.656C372.045 144.205 378.163 146.48 385.354 146.48C391.25 146.48 396.166 145.108 400.114 142.362C404.063 139.616 406.834 135.943 408.429 131.341H423.112C420.915 139.237 416.522 145.657 409.92 150.599C403.331 155.54 395.133 158.011 385.341 158.011C377.549 158.011 370.58 156.26 364.436 152.769C358.291 149.278 353.467 144.297 349.976 137.851C346.472 131.406 344.733 123.941 344.733 115.443C344.733 106.945 346.433 99.5057 349.832 93.1125C353.231 86.7194 358.003 81.8035 364.148 78.352C370.293 74.9005 377.353 73.1878 385.354 73.1878C393.355 73.1878 400.036 74.8874 406.037 78.2867C412.038 81.6859 416.653 86.3533 419.895 92.302C423.138 98.2506 424.772 104.971 424.772 112.462C424.772 115.064 424.628 117.809 424.327 120.698ZM407.24 96.198C404.939 92.4457 401.814 89.6087 397.879 87.6606C393.93 85.7126 389.564 84.7321 384.766 84.7321C377.876 84.7321 372.005 86.9286 367.155 91.3214C362.305 95.7142 359.533 101.807 358.84 109.599H410.691C410.691 104.408 409.541 99.9371 407.24 96.1849V96.198Z" fill="#03110C"/>
<path d="M442.905 154.795C437.911 152.651 433.963 149.644 431.06 145.8C428.158 141.957 426.563 137.538 426.262 132.543H440.343C440.735 136.636 442.67 139.983 446.108 142.584C449.56 145.186 454.07 146.48 459.666 146.48C464.856 146.48 468.962 145.33 471.956 143.029C474.949 140.728 476.453 137.838 476.453 134.335C476.453 130.831 474.858 128.059 471.655 126.32C468.452 124.568 463.51 122.856 456.816 121.156C450.723 119.561 445.755 117.94 441.899 116.279C438.055 114.632 434.76 112.187 432.002 108.932C429.256 105.69 427.883 101.414 427.883 96.1195C427.883 91.9228 429.125 88.079 431.636 84.5752C434.133 81.0845 437.676 78.3128 442.278 76.2602C446.867 74.2076 452.122 73.1878 458.019 73.1878C467.105 73.1878 474.453 75.4888 480.048 80.0778C485.644 84.6798 488.638 90.9684 489.043 98.9565H475.407C475.106 94.6552 473.381 91.2168 470.243 88.6151C467.092 86.0134 462.869 84.719 457.574 84.719C452.671 84.719 448.775 85.765 445.886 87.8699C442.984 89.9617 441.546 92.7203 441.546 96.1064C441.546 98.7997 442.422 101.022 444.173 102.774C445.925 104.526 448.122 105.925 450.763 106.971C453.404 108.017 457.077 109.193 461.771 110.488C467.667 112.083 472.465 113.665 476.152 115.207C479.852 116.763 483.016 119.077 485.67 122.176C488.311 125.274 489.697 129.314 489.788 134.321C489.788 138.819 488.533 142.859 486.036 146.454C483.539 150.049 480.022 152.873 475.472 154.926C470.923 156.979 465.706 157.998 459.81 157.998C453.521 157.998 447.873 156.926 442.879 154.782L442.905 154.795Z" fill="#03110C"/>
<path d="M513.648 85.778V134.191C513.648 138.191 514.498 141.015 516.198 142.663C517.897 144.31 520.839 145.134 525.036 145.134H535.076V156.678H522.787C515.191 156.678 509.504 154.926 505.699 151.435C501.895 147.945 499.999 142.192 499.999 134.204V85.7911H489.357V74.5476H499.999V53.8646H513.635V74.5476H535.063V85.7911H513.635L513.648 85.778Z" fill="#03110C"/>
<path d="M596.223 90.8769H581.685V156.665H560.401V90.8769H550.961V73.6455H560.401V69.4488C560.401 59.2642 563.303 51.7597 569.095 46.9747C574.887 42.1765 583.633 39.9279 595.321 40.2286V57.9175C590.222 57.813 586.679 58.6628 584.679 60.467C582.679 62.2712 581.685 65.5135 581.685 70.2071V73.6586H596.223V90.89V90.8769Z" fill="#03110C"/>
<path d="M685.348 73.6454L633.942 195.939H611.611L625.352 164.339C628.071 158.09 628.137 151.017 625.548 144.728L596.328 73.6585H619.861L640.204 128.7C640.583 129.719 642.021 129.719 642.4 128.7L663.031 73.6454H685.361H685.348Z" fill="#03110C"/>
<path d="M168.144 0H53.5116C23.9579 0 0 23.9579 0 53.5116V168.144C0 197.697 23.9579 221.655 53.5116 221.655H168.144C197.697 221.655 221.655 197.697 221.655 168.144V53.5116C221.655 23.9579 197.697 0 168.144 0Z" fill="#1FAD7B"/>
<path d="M161.685 108.095L130.439 76.7832C129.157 75.515 127.432 74.7829 125.627 74.7829H121.862C125.627 75.2928 128.53 78.522 128.53 82.418V111.926C128.347 110.893 127.432 110.109 126.346 110.109H95.8711C94.7075 110.109 93.7531 111.011 93.6747 112.148C93.7923 111.037 94.7336 110.161 95.8711 110.161H126.32C127.536 110.161 128.53 111.155 128.53 112.37V143.068C128.53 143.447 128.438 143.813 128.268 144.114C128.334 144.022 128.386 143.905 128.425 143.787C128.164 144.65 127.34 145.291 126.399 145.291H65.6703C61.6959 145.291 58.4274 142.284 58.009 138.427V142.715C58.009 144.519 58.7281 146.258 60.0093 147.539L91.7006 178.956C92.9818 180.224 94.6945 180.93 96.4856 180.93H156.874C160.626 180.93 163.672 177.897 163.672 174.145V112.88C163.672 111.076 162.953 109.363 161.698 108.082L161.685 108.095Z" fill="white"/>
<path d="M93.6616 112.318V143.042C93.6616 143.107 93.6616 143.199 93.6616 143.264C93.6616 143.33 93.6747 143.421 93.7008 143.486C93.8838 144.506 94.7859 145.278 95.871 145.278H126.32C126.935 145.278 127.484 145.029 127.876 144.624C127.941 144.558 128.007 144.493 128.059 144.428C128.098 144.389 128.124 144.349 128.151 144.297C128.19 144.232 128.242 144.166 128.268 144.114C128.334 144.022 128.386 143.905 128.425 143.787C128.164 144.65 127.34 145.291 126.399 145.291H65.6703C61.6958 145.291 58.4274 142.284 58.009 138.427V47.4977C58.009 43.7454 61.0552 40.7123 64.8075 40.7123H86.8893C90.6415 40.7123 93.6877 43.7454 93.6877 47.4977V67.9976C93.6877 70.9392 95.5704 73.4494 98.1982 74.3776C98.9173 74.6391 99.6756 74.7829 100.486 74.7829H121.888C125.653 75.2928 128.556 78.522 128.556 82.4181V111.926C128.373 110.893 127.458 110.109 126.373 110.109H95.8972C94.7336 110.109 93.7792 111.011 93.7008 112.148C93.7008 112.201 93.7008 112.266 93.7008 112.318H93.6616Z" fill="url(#paint0_radial_light)"/>
<defs>
<radialGradient id="paint0_radial_light" cx="0" cy="0" r="1" gradientUnits="userSpaceOnUse" gradientTransform="translate(82.3526 76.6133) scale(136.91 136.91)">
<stop stop-color="#F2F2F2"/>
<stop offset="0.38" stop-color="#F0F0F0"/>
<stop offset="0.51" stop-color="#E9E9E9"/>
<stop offset="0.61" stop-color="#DDDDDD"/>
<stop offset="0.69" stop-color="#CCCCCC"/>
<stop offset="0.75" stop-color="#B6B6B6"/>
<stop offset="0.81" stop-color="#9B9B9B"/>
<stop offset="0.87" stop-color="#7A7A7A"/>
<stop offset="0.92" stop-color="#555555"/>
<stop offset="0.96" stop-color="#2C2C2C"/>
<stop offset="1"/>
</radialGradient>
</defs>
</svg>
